<?xml version="1.0" standalone="no"?>
<!DOCTYPE svg PUBLIC "-//W3C//DTD SVG 20010904//EN"
 "http://www.w3.org/TR/2001/REC-SVG-20010904/DTD/svg10.dtd">
<svg version="1.0" xmlns="http://www.w3.org/2000/svg"
 width="369.000000pt" height="369.000000pt" viewBox="0 0 369.000000 369.000000"
 preserveAspectRatio="xMidYMid meet">
<metadata>
Created by potrace 1.11, written by Peter Selinger 2001-2013
</metadata>
<g transform="translate(0.000000,369.000000) scale(0.100000,-0.100000)"
fill="#000000" stroke="none">
<path d="M1640 3683 c-241 -25 -538 -126 -745 -253 -66 -40 -196 -132 -221
-155 -6 -6 -35 -31 -64 -56 -74 -62 -210 -218 -280 -320 -214 -313 -321 -659
-321 -1044 0 -237 31 -425 105 -628 114 -313 298 -575 551 -787 472 -394 1110
-525 1706 -352 168 49 359 140 502 238 43 30 80 54 82 54 6 0 88 73 173 155
289 277 474 638 538 1050 21 135 21 399 0 536 -125 819 -750 1438 -1569 1554
-93 13 -363 18 -457 8z m389 -129 c1 -1 -14 -5 -35 -9 -266 -42 -479 -132
-669 -283 -165 -132 -285 -282 -381 -477 -256 -521 -155 -1151 251 -1561 119
-120 229 -188 381 -234 38 -12 82 -25 97 -30 15 -5 99 -7 185 -6 123 3 172 8
227 24 318 94 544 323 633 640 l27 96 7 -49 c20 -155 0 -356 -53 -521 -133
-415 -456 -718 -888 -831 -130 -34 -362 -43 -501 -19 -316 55 -589 221 -798
484 -575 724 -487 1746 203 2362 263 234 625 388 985 420 83 7 319 3 329 -6z
m298 -135 c358 -48 652 -227 883 -534 507 -678 455 -1598 -125 -2213 -267
-283 -627 -465 -1022 -517 -120 -16 -281 -19 -373 -8 l-55 7 90 13 c136 20
258 58 390 123 398 193 672 555 752 994 23 125 22 360 -2 486 -76 405 -335
769 -647 909 -141 64 -330 92 -483 72 -380 -50 -680 -319 -771 -691 l-19 -75
-6 55 c-27 221 17 479 116 685 107 223 307 434 525 552 229 123 502 176 747
142z m-329 -805 c361 -74 622 -391 622 -757 0 -438 -339 -778 -775 -778 -429
0 -775 342 -775 767 0 112 13 187 51 286 136 352 510 557 877 482z"/>
<path d="M1800 2110 c-113 -21 -190 -116 -190 -235 0 -74 24 -129 75 -174 52
-45 93 -61 160 -61 137 0 235 98 235 235 0 154 -130 262 -280 235z"/>
</g>
</svg>
